# xmcd
#
# Track frame offsets: 
#        150
#        11347
#        21602
#        33002
#        55810
#        76142
#        87222
#        98450
#        114310
#        125040
#        137495
#        148815
#        159930
#        169652
#        182682
#        197205
#        209397
#        223500
#        236287
#
# Disc length: 3299 seconds
#
# Revision: 0
# Processed by: cddbd v1.5PL3 Copyright (c) Steve Scherf et al.
# Submitted via: ExactAudioCopy v0.95a3
#
DISCID=f30ce113
DTITLE=Various Artist - The Roots Of Gumbo
DYEAR=1994
DGENRE=Blues
TTITLE0=Sugarboy Crawford/Jockomo (=Iko Iko)
TTITLE1=Junior Gordon with Huey Smith Orchestra/Blow Wind Blow
TTITLE2=Professor Longhair/Big Chief (pt.2)
TTITLE3=Professor Longhair/Mess Around
TTITLE4=Earl King/Let The Good Times Roll (=Come On)
TTITLE5=James Wayne/Junco Partner
TTITLE6=Archibald/Stack-A-Lee (pt.1)
TTITLE7=Professor Longhair/Tipitina
TTITLE8=Earl King/Those Lonely, Lonely Nights
TTITLE9=Huey Smith and The Clowns/High Blood Pressure
TTITLE10=Huey Smith and The Clowns/Don't You Just Know It
TTITLE11=Huey Smith and The Clowns/Well I'll Be John Brown
TTITLE12=Junior Gordon with Huey Smith and Huey Smith Orchestra/Little L
TTITLE12=iza Jane
TTITLE13=Joe Turner/Careless Love
TTITLE14=Buddy Johnson and His Orchestra/Since I Fell For You
TTITLE15=Smiley Lewis/Blue Monday
TTITLE16=Charles Brown/Black Night
TTITLE17=Chris Kenner/Something You Got
TTITLE18=James Wayne/Travelin' Mood
EXTD=
EXTT0=
EXTT1=
EXTT2=
EXTT3=
EXTT4=
EXTT5=
EXTT6=
EXTT7=
EXTT8=
EXTT9=
EXTT10=
EXTT11=
EXTT12=
EXTT13=
EXTT14=
EXTT15=
EXTT16=
EXTT17=
EXTT18=
PLAYORDER=
